<svg xmlns="http://www.w3.org/2000/svg" width="63" height="62" viewBox="0 0 63 62" fill="none">
  <mask id="mask0_14_774" style="mask-type:luminance" maskUnits="userSpaceOnUse" x="0" y="0" width="63" height="62">
    <path d="M62.21 0.279999H0.77002V61.72H62.21V0.279999Z" fill="white"/>
  </mask>
  <g mask="url(#mask0_14_774)">
    <path d="M51.1134 18.5211C49.3875 9.41044 41.591 2.71936 32.3899 2.30776V1.18C32.3899 0.682839 31.9869 0.279999 31.4899 0.279999C30.9929 0.279999 30.5899 0.682839 30.5899 1.18V2.3104C27.3723 2.45524 24.2318 3.37156 21.4561 4.98724C21.0265 5.2372 20.8811 5.78824 21.131 6.21772C21.3811 6.64732 21.9321 6.79312 22.3616 6.5428C24.1069 5.527 26.0111 4.81516 27.9877 4.42828C27.2049 5.4682 26.5854 6.74308 26.1207 7.91596C24.9585 10.8498 24.0924 14.7008 23.5914 19.1344C22.047 17.7878 20.0714 17.0354 17.9785 17.0354C16.4976 17.0354 15.0631 17.4118 13.7879 18.1296C14.6087 14.5844 16.4553 11.41 19.1582 8.91184C19.5233 8.5744 19.5457 8.005 19.2083 7.63996C18.8708 7.27492 18.3014 7.25248 17.9364 7.58992C14.7647 10.5214 12.6657 14.3014 11.8664 18.5213C11.7549 19.1097 12.0066 19.7018 12.5077 20.0292C13.0151 20.3612 13.6667 20.3538 14.1681 20.0109C15.2925 19.2419 16.6101 18.8354 17.9785 18.8354C20.0526 18.8354 21.9831 19.7682 23.2749 21.3947C23.9119 22.1966 25.1663 22.1346 25.7082 21.2422C26.7887 19.463 28.5714 18.3095 30.59 18.0438V22.4522C30.0729 22.6193 29.6076 22.9288 29.2503 23.3562L27.5541 25.3848C27.3521 25.6272 27.0117 25.701 26.727 25.5648L24.1529 24.3324C23.2077 23.88 22.0682 24.163 21.4433 25.0049L20.4083 26.3991C19.7029 27.3515 19.8655 28.6898 20.7787 29.4461L23.1008 31.3665C22.0112 31.8642 21.2516 32.9637 21.2516 34.2378C21.2516 35.8245 22.4288 37.1408 23.9556 37.3606C23.8381 37.989 23.7438 38.2277 23.7098 38.2985C23.3123 39.1344 21.2861 41.2311 20.1023 42.3562C20.0827 42.3748 20.064 42.3942 20.0461 42.4145C16.6773 46.2486 16.1361 51.789 18.6996 56.2011C20.6777 59.6052 24.3518 61.72 28.2883 61.72H34.6915C38.628 61.72 42.302 59.6052 44.28 56.2012C45.4061 54.2639 45.9584 52.0572 45.8773 49.8194C45.8593 49.3226 45.4407 48.9365 44.9453 48.9525C44.4485 48.9705 44.0604 49.3877 44.0784 49.8845C44.1471 51.7821 43.6787 53.6536 42.7236 55.2968C41.0667 58.1484 37.989 59.92 34.6915 59.92H28.2883C24.9908 59.92 21.9131 58.1484 20.2561 55.2968C18.0884 51.5658 18.5383 46.8833 21.3726 43.6322C21.8283 43.1975 24.6819 40.4458 25.3349 39.0729C25.4017 38.933 25.5827 38.5538 25.7777 37.3932H37.2024C37.3974 38.5538 37.5782 38.9328 37.6443 39.0713C38.298 40.4459 41.1518 43.1978 41.6073 43.6322C42.2637 44.3847 42.8031 45.2278 43.2109 46.1386C43.3605 46.4728 43.6889 46.6712 44.0329 46.6712C44.1558 46.6712 44.2807 46.6458 44.4002 46.5924C44.8538 46.3893 45.057 45.8568 44.8538 45.4032C44.3669 44.3157 43.7209 43.3102 42.9336 42.4145C42.9158 42.3942 42.8971 42.3748 42.8775 42.3563C41.694 41.2316 39.6679 39.1354 39.2693 38.2971C39.2359 38.2272 39.1417 37.9889 39.0242 37.3606C40.551 37.1408 41.7282 35.8244 41.7282 34.2378C41.7282 32.9637 40.9687 31.8644 39.879 31.3665L42.2016 29.4458C43.1144 28.6898 43.2769 27.3515 42.5709 26.3982L41.5367 25.005C40.9117 24.1631 39.7721 23.8802 38.8268 24.3326L36.2533 25.5647C35.9681 25.7012 35.6277 25.6272 35.4252 25.3842L33.7297 23.3565C33.3723 22.9289 32.907 22.6194 32.3899 22.4523V18.0436C34.4084 18.3093 36.1911 19.4627 37.2717 21.242C37.8131 22.1336 39.0645 22.201 39.705 21.3945C40.9968 19.768 42.9273 18.8351 45.0014 18.8351C46.3698 18.8351 47.6874 19.2417 48.8119 20.0106C49.3133 20.3534 49.965 20.3608 50.4722 20.029C50.9732 19.7015 51.2249 19.1094 51.1134 18.5211ZM38.5724 35.5931H24.4074C23.6599 35.5931 23.0517 34.9851 23.0517 34.2375C23.0517 33.4899 23.6599 32.8818 24.4074 32.8818H38.5725C39.32 32.8818 39.9282 33.4899 39.9282 34.2375C39.9282 34.9851 39.3199 35.5931 38.5724 35.5931ZM34.0436 26.5377C34.7735 27.4125 36.0013 27.6798 37.0302 27.1881L39.6041 25.9557C39.7737 25.8744 39.9786 25.9258 40.0914 26.0776L41.1251 27.47C41.2615 27.6542 41.2301 27.913 41.054 28.0588L37.3985 31.0818H25.5815L21.9264 28.0592C21.7499 27.913 21.7184 27.6542 21.8541 27.4709L22.8885 26.0777C23.0012 25.9258 23.2063 25.8747 23.3757 25.9558L25.9502 27.1883C26.9786 27.6798 28.2065 27.4124 28.9357 26.5384L30.6313 24.5104C30.8442 24.2558 31.1571 24.1096 31.49 24.1096C31.8229 24.1096 32.1357 24.2558 32.3487 24.5105L34.0436 26.5377ZM31.4899 16.1846C29.1833 16.1846 27.0404 17.0868 25.4585 18.666C26.6241 9.17716 29.3418 4.0876 31.4899 4.0876C33.638 4.0876 36.3557 9.17716 37.5213 18.6659C35.9394 17.0868 33.7965 16.1846 31.4899 16.1846ZM45.0013 17.0351C42.9084 17.0351 40.9328 17.7876 39.3884 19.1342C38.8874 14.7005 38.0214 10.8496 36.8591 7.91572C36.3942 6.74224 35.7743 5.46664 34.9909 4.42648C41.9225 5.78464 47.5617 11.1009 49.1917 18.1292C47.9166 17.4116 46.4821 17.0351 45.0013 17.0351Z" fill="#012169"/>
    <path d="M31.4899 53.6546C31.9869 53.6546 32.3899 53.2517 32.3899 52.7546V52.1062C33.908 52.0084 35.1133 50.7429 35.1133 49.2004C35.1133 47.5943 33.8067 46.2879 32.2007 46.2879H30.779C30.1655 46.2879 29.6665 45.7888 29.6665 45.1754C29.6665 44.6265 30.0664 44.1704 30.5899 44.0801V44.3627C30.5899 44.8599 30.9928 45.2627 31.4899 45.2627C31.9869 45.2627 32.3899 44.8599 32.3899 44.3627V44.0627H33.3733C33.8703 44.0627 34.2733 43.6599 34.2733 43.1627C34.2733 42.6656 33.8703 42.2627 33.3733 42.2627H32.3899V41.6211C32.3899 41.1239 31.9869 40.7211 31.4899 40.7211C30.9928 40.7211 30.5899 41.1239 30.5899 41.6211V42.2694C29.0717 42.3672 27.8665 43.6328 27.8665 45.1752C27.8665 46.7813 29.173 48.0878 30.779 48.0878H32.2007C32.8142 48.0878 33.3133 48.5868 33.3133 49.2003C33.3133 49.7492 32.9133 50.2053 32.3899 50.2955V50.0129C32.3899 49.5158 31.9869 49.1129 31.4899 49.1129C30.9928 49.1129 30.5899 49.5158 30.5899 50.0129V50.3129H29.6065C29.1094 50.3129 28.7065 50.7158 28.7065 51.2129C28.7065 51.7101 29.1094 52.1129 29.6065 52.1129H30.5899V52.7546C30.5899 53.2517 30.9928 53.6546 31.4899 53.6546Z" fill="#012169"/>
  </g>
</svg>