<svg xmlns="http://www.w3.org/2000/svg" width="62" height="62" viewBox="0 0 62 62" fill="none">
  <g clip-path="url(#clip0_14_822)">
    <path d="M57.11 45.972V23.7791C57.11 22.6826 56.2178 21.7905 55.1214 21.7905H40.7015V17.9062C40.7015 17.3267 40.4492 16.7781 40.0096 16.4008C39.5698 16.0234 38.9893 15.8577 38.4163 15.9456L37.1338 16.1429C37.045 16.1566 36.9594 16.1019 36.9302 16.0127C36.6904 15.2788 36.3905 14.5568 36.0388 13.8665C36.0001 13.7906 36.0246 13.6938 36.0959 13.6415L37.1436 12.873C37.6109 12.5304 37.9042 12.0025 37.9483 11.4247C37.9925 10.8469 37.7828 10.2805 37.3732 9.87075L33.4326 5.93007C33.0228 5.52039 32.4568 5.31039 31.8787 5.35491C31.301 5.39907 30.773 5.69235 30.4304 6.15963L29.662 7.20747C29.6099 7.27863 29.5132 7.30335 29.437 7.26447C28.7468 6.91287 28.0248 6.61299 27.2909 6.37311C27.2017 6.34395 27.1469 6.25827 27.1606 6.16947L27.3578 4.88691C27.4458 4.31415 27.28 3.73347 26.9026 3.29367C26.5253 2.85387 25.9765 2.60175 25.3972 2.60175H19.8246C19.2452 2.60175 18.6965 2.85399 18.3192 3.29367C17.9418 3.73347 17.776 4.31415 17.8639 4.88691L18.0612 6.16959C18.0749 6.25839 18.02 6.34407 17.9309 6.37311C17.197 6.61299 16.4749 6.91287 15.7848 7.26447C15.7087 7.30335 15.6121 7.27875 15.5598 7.20747L14.7913 6.15963C14.4486 5.69235 13.9206 5.39907 13.3429 5.35491C12.7642 5.30991 12.1987 5.52039 11.789 5.93007L7.84836 9.87063C7.43856 10.2804 7.22892 10.8467 7.2732 11.4245C7.31748 12.0023 7.61064 12.5302 8.07792 12.8729L9.12564 13.6414C9.19692 13.6937 9.2214 13.7904 9.18264 13.8664C8.83128 14.5562 8.53128 15.2781 8.29128 16.0125C8.26212 16.1016 8.17548 16.156 8.08776 16.1427L6.80508 15.9454C6.23268 15.8576 5.65164 16.0234 5.21184 16.4007C4.77204 16.778 4.51992 17.3267 4.51992 17.9061V23.4786C4.51992 24.0581 4.77216 24.6068 5.21196 24.9842C5.65176 25.3614 6.23208 25.5274 6.8052 25.4393L8.08776 25.242C8.17632 25.2285 8.26212 25.2831 8.29128 25.3725C8.53128 26.1069 8.83128 26.8288 9.18264 27.5183C9.2214 27.5944 9.19692 27.6912 9.12564 27.7434L8.07792 28.5119C7.61064 28.8546 7.31736 29.3826 7.2732 29.9603C7.22904 30.5381 7.43868 31.1045 7.84836 31.5142L11.7888 35.4546C12.1984 35.8643 12.7636 36.0744 13.3426 36.0298C13.9202 35.9856 14.4482 35.6924 14.791 35.2251L15.5594 34.1772C15.6118 34.106 15.7087 34.0816 15.7844 34.1204C16.4746 34.472 17.1966 34.7718 17.9305 35.0117C18.0197 35.0409 18.0745 35.1264 18.0608 35.2154L17.8636 36.4979C17.7756 37.0707 17.9414 37.6514 18.3188 38.0912C18.6961 38.531 19.2449 38.7831 19.8242 38.7831H25.1489V45.614H7.26696C3.46668 45.6142 0.375 48.706 0.375 52.5063C0.375 56.3066 3.46668 59.3982 7.26696 59.3982H39.8768C40.374 59.3982 40.7768 58.9953 40.7768 58.4982C40.7768 58.0012 40.374 57.5982 39.8768 57.5982H7.26696C4.45932 57.5982 2.175 55.3139 2.175 52.5063C2.175 49.6986 4.45932 47.4143 7.26696 47.4143H54.923C57.7307 47.4143 60.015 49.6986 60.015 52.5063C60.015 55.3139 57.7308 57.5982 54.923 57.5982H44.1968C43.6997 57.5982 43.2968 58.0012 43.2968 58.4982C43.2968 58.9953 43.6997 59.3982 44.1968 59.3982H54.923C58.7232 59.3982 61.815 56.3066 61.815 52.5063C61.815 49.4704 59.8411 46.8887 57.11 45.972ZM38.9623 23.5905H43.2968V30.522H38.9623V23.5905ZM19.8245 36.9833C19.7548 36.9833 19.7102 36.9484 19.6852 36.9192C19.6601 36.8901 19.6324 36.8406 19.6429 36.7718L19.8402 35.4892C19.9884 34.5254 19.4206 33.6052 18.49 33.3011C17.8444 33.0902 17.2091 32.8263 16.602 32.5169C15.7348 32.0751 14.6858 32.3256 14.1083 33.1132L13.3398 34.1609C13.2985 34.2172 13.244 34.2326 13.2056 34.2356C13.1681 34.2383 13.1111 34.2316 13.0619 34.1823L9.1212 30.2416C9.07188 30.1923 9.06504 30.1361 9.06792 30.0977C9.0708 30.0593 9.08616 30.0048 9.14244 29.9636L10.1902 29.1951C10.9776 28.6176 11.2284 27.5688 10.7864 26.7012C10.4773 26.0944 10.2134 25.4592 10.0022 24.8134C9.69816 23.8828 8.77764 23.3154 7.81416 23.463L6.5316 23.6603C6.46272 23.6714 6.41328 23.6433 6.384 23.6182C6.35484 23.5931 6.31992 23.5486 6.31992 23.4788V17.9062C6.31992 17.8365 6.35484 17.792 6.384 17.7669C6.41328 17.7418 6.4626 17.7137 6.5316 17.7246L7.81416 17.9218C8.77776 18.0698 9.69816 17.5022 10.0022 16.5717C10.2134 15.9257 10.4772 15.2904 10.7866 14.6835C11.2285 13.8161 10.9776 12.7673 10.1902 12.1899L9.14244 11.4214C9.08616 11.3801 9.0708 11.3257 9.06792 11.2872C9.06504 11.2488 9.07188 11.1927 9.1212 11.1433L13.0615 7.20303C13.111 7.15371 13.168 7.14723 13.2054 7.14975C13.2438 7.15263 13.2983 7.16799 13.3396 7.22427L14.108 8.27211C14.6855 9.05955 15.7344 9.31023 16.6018 8.86839C17.209 8.55903 17.8442 8.29515 18.4897 8.08419C19.4203 7.77999 19.988 6.85971 19.84 5.89611L19.6427 4.61355C19.632 4.54455 19.6598 4.49523 19.6849 4.46595C19.71 4.43679 19.7545 4.40187 19.8242 4.40187H25.3968C25.4665 4.40187 25.511 4.43679 25.5361 4.46595C25.5612 4.49523 25.5889 4.54455 25.5784 4.61355L25.3813 5.89599C25.2332 6.85971 25.801 7.77987 26.7316 8.08407C27.3772 8.29503 28.0124 8.55891 28.6195 8.86827C29.487 9.31035 30.5358 9.05955 31.1132 8.27199L31.8817 7.22427C31.923 7.16799 31.9775 7.15263 32.0158 7.14975C32.0543 7.14663 32.1104 7.15359 32.1596 7.20291L36.1001 11.1432C36.1494 11.1927 36.1564 11.2488 36.1534 11.2872C36.1505 11.3256 36.1351 11.38 36.0788 11.4213L35.0311 12.1899C34.2437 12.7674 33.9929 13.8162 34.4348 14.6835C34.7442 15.2908 35.0081 15.926 35.219 16.5714C35.523 17.502 36.4426 18.0698 37.407 17.9217L38.6896 17.7244C38.7581 17.7132 38.8078 17.7414 38.837 17.7665C38.8663 17.7916 38.9011 17.8361 38.9011 17.906V21.7902H31.9486C31.9909 21.4263 32.0148 21.0593 32.0148 20.6922C32.0148 15.5067 27.796 11.2878 22.6103 11.2878C22.1131 11.2878 21.7103 11.6908 21.7103 12.1878C21.7103 12.6849 22.1131 13.0878 22.6103 13.0878C26.8034 13.0878 30.2148 16.4992 30.2148 20.6922C30.2148 21.0599 30.1877 21.428 30.1354 21.7902H27.1373C26.0407 21.7902 25.1486 22.6823 25.1486 23.7789V27.8625C24.3364 28.1505 23.4844 28.2968 22.6103 28.2968C18.4172 28.2968 15.0059 24.8854 15.0059 20.6922C15.0059 18.043 16.3516 15.626 18.6054 14.2265C19.0277 13.9643 19.1575 13.4094 18.8953 12.9872C18.633 12.5649 18.0781 12.4352 17.656 12.6972C14.8694 14.4273 13.2059 17.416 13.2059 20.6921C13.2059 25.8778 17.4246 30.0966 22.6103 30.0966C23.4774 30.0966 24.3269 29.9776 25.1486 29.7474V36.983H19.8245V36.9833ZM26.9491 45.6142V23.7791C26.9491 23.6751 27.0337 23.5905 27.1378 23.5905H37.1623V30.7499C37.1623 31.6168 37.8676 32.322 38.7344 32.322H43.5248C44.3917 32.322 45.097 31.6168 45.097 30.7499V23.5905H55.1215C55.2256 23.5905 55.3102 23.6751 55.3102 23.7791V25.6001H49.9595C49.4623 25.6001 49.0595 26.0031 49.0595 26.5001C49.0595 26.9972 49.4623 27.4001 49.9595 27.4001H55.3102V30.7038H50.6616C50.1644 30.7038 49.7616 31.1068 49.7616 31.6038C49.7616 32.1009 50.1644 32.5038 50.6616 32.5038H55.3102V45.6142H26.9491Z" fill="#012169"/>
    <path d="M6.30835 52.5063C6.30835 54.2601 7.73515 55.6869 9.48895 55.6869C11.2427 55.6869 12.6696 54.2601 12.6696 52.5063C12.6696 50.7525 11.2426 49.3257 9.48895 49.3257C7.73527 49.3257 6.30835 50.7525 6.30835 52.5063ZM10.8697 52.5063C10.8697 53.2676 10.2503 53.8869 9.48907 53.8869C8.72779 53.8869 8.10847 53.2676 8.10847 52.5063C8.10847 51.745 8.72779 51.1257 9.48907 51.1257C10.2502 51.1257 10.8697 51.745 10.8697 52.5063Z" fill="#012169"/>
    <path d="M14.9507 52.5063C14.9507 54.2601 16.3775 55.6869 18.1313 55.6869C19.8851 55.6869 21.3119 54.2601 21.3119 52.5063C21.3119 50.7525 19.8851 49.3257 18.1313 49.3257C16.3775 49.3257 14.9507 50.7525 14.9507 52.5063ZM19.5119 52.5063C19.5119 53.2676 18.8926 53.8869 18.1313 53.8869C17.37 53.8869 16.7507 53.2676 16.7507 52.5063C16.7507 51.745 17.37 51.1257 18.1313 51.1257C18.8926 51.1257 19.5119 51.745 19.5119 52.5063Z" fill="#012169"/>
    <path d="M23.5933 52.5063C23.5933 54.2601 25.0201 55.6869 26.7739 55.6869C28.5277 55.6869 29.9545 54.2601 29.9545 52.5063C29.9545 50.7525 28.5277 49.3257 26.7739 49.3257C25.0201 49.3257 23.5933 50.7525 23.5933 52.5063ZM28.1545 52.5063C28.1545 53.2676 27.5351 53.8869 26.7739 53.8869C26.0126 53.8869 25.3933 53.2676 25.3933 52.5063C25.3933 51.745 26.0126 51.1257 26.7739 51.1257C27.5351 51.1257 28.1545 51.745 28.1545 52.5063Z" fill="#012169"/>
    <path d="M32.2356 52.5063C32.2356 54.2601 33.6625 55.6869 35.4163 55.6869C37.1701 55.6869 38.5969 54.2601 38.5969 52.5063C38.5969 50.7525 37.1701 49.3257 35.4163 49.3257C33.6625 49.3257 32.2356 50.7525 32.2356 52.5063ZM36.7969 52.5063C36.7969 53.2676 36.1776 53.8869 35.4163 53.8869C34.6549 53.8869 34.0356 53.2676 34.0356 52.5063C34.0356 51.745 34.6549 51.1257 35.4163 51.1257C36.1776 51.1257 36.7969 51.745 36.7969 52.5063Z" fill="#012169"/>
    <path d="M47.2391 52.5063C47.2391 50.7525 45.8123 49.3257 44.0585 49.3257C42.3047 49.3257 40.8779 50.7525 40.8779 52.5063C40.8779 54.2601 42.3047 55.6869 44.0585 55.6869C45.8123 55.6869 47.2391 54.2601 47.2391 52.5063ZM42.6779 52.5063C42.6779 51.745 43.2973 51.1257 44.0585 51.1257C44.8198 51.1257 45.4391 51.745 45.4391 52.5063C45.4391 53.2676 44.8198 53.8869 44.0585 53.8869C43.2973 53.8869 42.6779 53.2676 42.6779 52.5063Z" fill="#012169"/>
    <path d="M55.8817 52.5063C55.8817 50.7525 54.4549 49.3257 52.7011 49.3257C50.9473 49.3257 49.5205 50.7525 49.5205 52.5063C49.5205 54.2601 50.9473 55.6869 52.7011 55.6869C54.4549 55.6869 55.8817 54.2601 55.8817 52.5063ZM51.3205 52.5063C51.3205 51.745 51.9398 51.1257 52.7011 51.1257C53.4624 51.1257 54.0817 51.745 54.0817 52.5063C54.0817 53.2676 53.4624 53.8869 52.7011 53.8869C51.9398 53.8869 51.3205 53.2676 51.3205 52.5063Z" fill="#012169"/>
    <path d="M42.9462 36.9117H37.7794C37.2822 36.9117 36.8794 37.3146 36.8794 37.8117C36.8794 38.3087 37.2822 38.7117 37.7794 38.7117H42.9462C43.4434 38.7117 43.8462 38.3087 43.8462 37.8117C43.8462 37.3146 43.4434 36.9117 42.9462 36.9117Z" fill="#012169"/>
    <path d="M42.6812 41.2517H38.0072C37.51 41.2517 37.1072 41.6547 37.1072 42.1517C37.1072 42.6488 37.51 43.0517 38.0072 43.0517H42.6812C43.1783 43.0517 43.5812 42.6488 43.5812 42.1517C43.5812 41.6547 43.1783 41.2517 42.6812 41.2517Z" fill="#012169"/>
    <path d="M6.32749 43.1942H15.8506C16.3477 43.1942 16.7506 42.7912 16.7506 42.2942C16.7506 41.7971 16.3477 41.3942 15.8506 41.3942H6.32749C5.83045 41.3942 5.42749 41.7971 5.42749 42.2942C5.42749 42.7912 5.83045 43.1942 6.32749 43.1942Z" fill="#012169"/>
    <path d="M6.32749 39.2056H10.1035C10.6007 39.2056 11.0035 38.8026 11.0035 38.3056C11.0035 37.8086 10.6007 37.4056 10.1035 37.4056H6.32749C5.83045 37.4056 5.42749 37.8086 5.42749 38.3056C5.42749 38.8026 5.83045 39.2056 6.32749 39.2056Z" fill="#012169"/>
  </g>
  <defs>
    <clipPath id="clip0_14_822">
      <rect width="61.44" height="61.44" fill="white" transform="translate(0.375 0.279999)"/>
    </clipPath>
  </defs>
</svg>