<svg xmlns="http://www.w3.org/2000/svg" width="62" height="70" viewBox="0 0 62 70" fill="none">
  <path d="M14.7522 24.831C17.5792 24.831 19.8709 22.5392 19.8709 19.7122C19.8709 16.8852 17.5792 14.5935 14.7522 14.5935C11.9252 14.5935 9.63342 16.8852 9.63342 19.7122C9.63342 22.5392 11.9252 24.831 14.7522 24.831Z" fill="#012169"/>
  <path d="M14.6376 13.6932C15.8856 13.6936 17.1055 14.064 18.1431 14.7577C19.1806 15.4513 19.9892 16.437 20.4666 17.5901C20.944 18.7432 21.0688 20.012 20.8253 21.236C20.5817 22.4601 19.9806 23.5844 19.0981 24.4669C18.2156 25.3494 17.0913 25.9504 15.8673 26.194C14.6432 26.4376 13.3745 26.3128 12.2213 25.8353C11.0682 25.3579 10.0826 24.5493 9.38892 23.5118C8.6953 22.4743 8.32487 21.2544 8.32446 20.0063C8.32573 18.3324 8.99127 16.7273 10.1749 15.5437C11.3586 14.36 12.9636 13.6945 14.6376 13.6932ZM14.6376 23.9259C15.4134 23.9255 16.1716 23.6951 16.8164 23.2637C17.4613 22.8324 17.9637 22.2195 18.2601 21.5026C18.5566 20.7857 18.6338 19.9969 18.4821 19.2361C18.3303 18.4753 17.9563 17.7766 17.4074 17.2284C16.8585 16.6802 16.1593 16.307 15.3983 16.1562C14.6373 16.0053 13.8487 16.0835 13.1322 16.3808C12.4156 16.6782 11.8033 17.1813 11.3728 17.8267C10.9422 18.472 10.7127 19.2305 10.7132 20.0063C10.715 21.0461 11.1292 22.0428 11.8649 22.7776C12.6006 23.5124 13.5978 23.9254 14.6376 23.9259Z" fill="#012169"/>
  <path d="M20.6401 56.6H8.89494C8.57817 56.6 8.27437 56.4742 8.05039 56.2502C7.8264 56.0262 7.70056 55.7224 7.70056 55.4057V29.2038C7.70183 27.805 8.25793 26.4638 9.24686 25.4744C10.2358 24.4851 11.5768 23.9285 12.9756 23.9267H16.5587C17.9577 23.9283 19.2988 24.4849 20.2879 25.4742C21.277 26.4635 21.8332 27.8048 21.8345 29.2038C21.8345 29.5206 21.7086 29.8244 21.4846 30.0483C21.2606 30.2723 20.9568 30.3982 20.6401 30.3982C20.3233 30.3982 20.0195 30.2723 19.7955 30.0483C19.5715 29.8244 19.4457 29.5206 19.4457 29.2038C19.445 28.4384 19.1407 27.7045 18.5996 27.1632C18.0585 26.6218 17.3248 26.3172 16.5594 26.3161H12.9756C12.2102 26.3172 11.4765 26.6218 10.9354 27.1632C10.3943 27.7045 10.09 28.4384 10.0893 29.2038V54.2113H19.4457V35.8827C19.4457 35.566 19.5715 35.2622 19.7955 35.0382C20.0195 34.8142 20.3233 34.6884 20.6401 34.6884C20.9568 34.6884 21.2606 34.8142 21.4846 35.0382C21.7086 35.2622 21.8345 35.566 21.8345 35.8827V55.4057C21.8345 55.7224 21.7086 56.0262 21.4846 56.2502C21.2606 56.4742 20.9568 56.6 20.6401 56.6Z" fill="#012169"/>
  <path d="M14.7671 56.6007C14.4507 56.6007 14.1472 56.4752 13.9233 56.2516C13.6994 56.0281 13.5733 55.7248 13.5728 55.4084V43.8742C13.5728 43.5574 13.6986 43.2536 13.9226 43.0296C14.1466 42.8056 14.4504 42.6798 14.7671 42.6798C15.0839 42.6798 15.3877 42.8056 15.6117 43.0296C15.8357 43.2536 15.9615 43.5574 15.9615 43.8742V55.4084C15.961 55.7248 15.8349 56.0281 15.611 56.2516C15.387 56.4752 15.0835 56.6007 14.7671 56.6007Z" fill="#012169"/>
  <path d="M28.4029 39.848C26.1357 39.3963 23.925 38.6969 21.8106 37.7622C20.0994 37.0069 18.4555 36.1076 16.8966 35.0739C15.3858 34.0991 13.9803 32.9701 12.7026 31.7051L13.5715 30.8854L14.4362 30.0664C15.6107 31.2151 16.8988 32.2416 18.2807 33.1301C19.7215 34.0804 21.24 34.9071 22.82 35.6015C24.7602 36.4565 26.7878 37.0972 28.867 37.5125L28.4029 39.848Z" fill="#012169"/>
  <path d="M46.1472 24.831C48.9742 24.831 51.2659 22.5392 51.2659 19.7122C51.2659 16.8852 48.9742 14.5935 46.1472 14.5935C43.3202 14.5935 41.0284 16.8852 41.0284 19.7122C41.0284 22.5392 43.3202 24.831 46.1472 24.831Z" fill="#012169"/>
  <path d="M46.2543 13.6932C47.5023 13.6936 48.7222 14.064 49.7598 14.7577C50.7973 15.4513 51.6059 16.437 52.0833 17.5901C52.5607 18.7432 52.6855 20.012 52.442 21.236C52.1984 22.4601 51.5973 23.5844 50.7148 24.4669C49.8323 25.3494 48.708 25.9504 47.484 26.194C46.2599 26.4376 44.9912 26.3128 43.838 25.8353C42.6849 25.3579 41.6992 24.5493 41.0056 23.5118C40.312 22.4743 39.9416 21.2544 39.9412 20.0063C39.9424 18.3324 40.608 16.7273 41.7916 15.5437C42.9753 14.36 44.5803 13.6945 46.2543 13.6932ZM46.2543 23.9259C47.0301 23.9255 47.7883 23.6951 48.4331 23.2637C49.078 22.8324 49.5804 22.2195 49.8768 21.5026C50.1733 20.7857 50.2505 19.9969 50.0987 19.2361C49.947 18.4753 49.573 17.7766 49.0241 17.2284C48.4752 16.6802 47.776 16.307 47.015 16.1562C46.254 16.0053 45.4654 16.0835 44.7489 16.3808C44.0323 16.6782 43.42 17.1813 42.9895 17.8267C42.5589 18.472 42.3294 19.2305 42.3299 20.0063C42.3317 21.0461 42.7459 22.0428 43.4816 22.7776C44.2173 23.5124 45.2145 23.9254 46.2543 23.9259Z" fill="#012169"/>
  <path d="M51.9921 56.6H40.2469C39.9302 56.6 39.6264 56.4742 39.4024 56.2502C39.1784 56.0262 39.0526 55.7224 39.0526 55.4057V35.8827C39.0526 35.566 39.1784 35.2622 39.4024 35.0382C39.6264 34.8142 39.9302 34.6884 40.2469 34.6884C40.5637 34.6884 40.8675 34.8142 41.0915 35.0382C41.3155 35.2622 41.4413 35.566 41.4413 35.8827V54.2113H50.7977V29.2038C50.797 28.4384 50.4927 27.7045 49.9516 27.1632C49.4105 26.6218 48.6768 26.3172 47.9114 26.3161H44.3276C43.5621 26.317 42.8282 26.6216 42.287 27.163C41.7457 27.7043 41.4414 28.4383 41.4406 29.2038C41.4406 29.5206 41.3148 29.8244 41.0908 30.0483C40.8668 30.2723 40.563 30.3982 40.2463 30.3982C39.9295 30.3982 39.6257 30.2723 39.4017 30.0483C39.1777 29.8244 39.0519 29.5206 39.0519 29.2038C39.0531 27.8048 39.6093 26.4635 40.5984 25.4742C41.5875 24.4849 42.9287 23.9283 44.3276 23.9267H47.9107C49.3097 23.9283 50.6508 24.4849 51.6399 25.4742C52.629 26.4635 53.1852 27.8048 53.1865 29.2038V55.4057C53.1865 55.7224 53.0606 56.0262 52.8366 56.2502C52.6126 56.4742 52.3088 56.6 51.9921 56.6Z" fill="#012169"/>
  <path d="M46.1198 56.6007C45.8034 56.6007 45.4999 56.4752 45.276 56.2516C45.052 56.0281 44.926 55.7248 44.9254 55.4084V43.8742C44.9254 43.5574 45.0513 43.2536 45.2752 43.0296C45.4992 42.8056 45.803 42.6798 46.1198 42.6798C46.4366 42.6798 46.7404 42.8056 46.9643 43.0296C47.1883 43.2536 47.3142 43.5574 47.3142 43.8742V55.4084C47.3136 55.7248 47.1875 56.0281 46.9636 56.2516C46.7397 56.4752 46.4362 56.6007 46.1198 56.6007Z" fill="#012169"/>
  <path d="M32.4842 39.848L32.0208 37.505C37.4335 36.4288 42.434 33.8508 46.4502 30.0657L48.1844 31.7085C46.9068 32.9735 45.5012 34.1025 43.9904 35.0773C42.4316 36.111 40.7876 37.0104 39.0764 37.7657C36.9619 38.6992 34.7512 39.3975 32.4842 39.848Z" fill="#012169"/>
  <path d="M34.1461 36.4655L33.2684 34.2433C36.7826 32.8558 39.183 28.6577 39.2062 28.6154L41.2864 29.7893C41.1731 29.992 38.4391 34.7709 34.1461 36.4655Z" fill="#012169"/>
  <path d="M30.2504 33.0312C31.3689 33.0156 32.4646 33.3481 33.3858 33.9826C33.8365 34.2829 34.2085 34.6869 34.4707 35.1608C34.7329 35.6346 34.8777 36.1644 34.8928 36.7058C34.8777 37.2471 34.7329 37.7769 34.4707 38.2508C34.2085 38.7246 33.8365 39.1286 33.3858 39.4289C32.4578 40.0492 31.3666 40.3803 30.2504 40.3803C29.1342 40.3803 28.043 40.0492 27.115 39.4289C26.6643 39.1286 26.2923 38.7246 26.0301 38.2508C25.7679 37.7769 25.6231 37.2471 25.608 36.7058C25.6231 36.1644 25.7679 35.6346 26.0301 35.1608C26.2923 34.6869 26.6643 34.2829 27.115 33.9826C28.0361 33.3479 29.1319 33.0154 30.2504 33.0312ZM30.2504 37.9909C31.5403 37.9909 32.5026 37.3125 32.5026 36.7051C32.5026 36.0977 31.539 35.4193 30.2504 35.4193C28.9618 35.4193 27.9981 36.0977 27.9981 36.7051C27.9981 37.3125 28.9612 37.9909 30.2504 37.9909Z" fill="#012169"/>
</svg>